<?xml version="1.0" standalone="no"?>
<!DOCTYPE svg PUBLIC "-//W3C//DTD SVG 20010904//EN"
 "http://www.w3.org/TR/2001/REC-SVG-20010904/DTD/svg10.dtd">
<svg version="1.0" xmlns="http://www.w3.org/2000/svg"
 width="512.000000pt" height="512.000000pt" viewBox="0 0 512.000000 512.000000"
 preserveAspectRatio="xMidYMid meet">

<g transform="translate(0.000000,512.000000) scale(0.100000,-0.100000)"
fill="#000000" stroke="none">
<path d="M2423 4115 c-29 -8 -72 -24 -95 -36 -53 -27 -140 -113 -166 -165 -19
-38 -25 -41 -82 -52 -150 -28 -257 -127 -295 -272 l-11 -45 -82 -3 c-75 -3
-83 -5 -103 -30 -20 -25 -21 -34 -16 -152 13 -265 101 -480 271 -659 334 -350
861 -410 1263 -144 84 55 203 173 263 259 111 160 167 333 177 544 5 118 4
127 -16 152 -20 25 -28 27 -103 30 l-82 3 -11 45 c-44 172 -205 292 -372 278
l-54 -5 -26 50 c-51 101 -165 185 -282 207 -70 13 -114 12 -178 -5z m228 -161
c65 -35 113 -97 135 -170 10 -36 24 -60 40 -71 24 -15 29 -15 78 0 29 10 68
17 87 17 42 0 126 -39 156 -71 22 -24 53 -88 53 -109 0 -7 -207 -10 -640 -10
-711 0 -659 -6 -621 68 41 79 123 124 220 120 71 -3 84 6 107 75 23 69 103
150 170 171 70 22 150 15 215 -20z m755 -626 c-21 -223 -101 -399 -247 -547
-106 -106 -216 -172 -366 -218 -78 -23 -104 -26 -233 -26 -129 0 -155 3 -233
26 -150 46 -260 111 -367 219 -144 143 -227 326 -245 536 l-8 82 853 0 853 0
-7 -72z"/>
<path d="M1903 2235 c-74 -20 -161 -66 -221 -117 -28 -24 -195 -211 -371 -416
-235 -273 -321 -380 -321 -398 0 -27 40 -74 64 -74 8 0 22 3 30 6 9 4 166 180
350 393 271 314 344 392 389 419 102 61 109 62 564 62 400 0 414 -1 433 -20
25 -25 26 -61 3 -89 -15 -18 -52 -28 -213 -58 -210 -38 -240 -51 -240 -103 0
-58 20 -64 349 -108 l305 -42 260 106 c636 257 666 269 684 257 19 -12 25 -33
14 -49 -13 -20 -945 -597 -995 -616 -43 -16 -85 -18 -495 -18 -359 0 -452 -3
-473 -14 -57 -29 -319 -256 -325 -281 -13 -53 49 -100 97 -75 12 7 81 61 154
121 l132 108 454 3 454 3 60 25 c34 15 241 138 460 275 624 388 595 367 616
447 30 111 -56 219 -173 218 -32 -1 -154 -46 -492 -183 l-449 -183 -69 10 -69
9 36 32 c43 40 74 107 75 161 0 58 -42 136 -92 170 l-41 29 -446 2 c-359 2
-456 -1 -498 -12z"/>
</g>
</svg>
