<?xml version="1.0" standalone="no"?>
<!DOCTYPE svg PUBLIC "-//W3C//DTD SVG 20010904//EN"
 "http://www.w3.org/TR/2001/REC-SVG-20010904/DTD/svg10.dtd">
<svg version="1.0" xmlns="http://www.w3.org/2000/svg"
 width="512.000000pt" height="512.000000pt" viewBox="0 0 512.000000 512.000000"
 preserveAspectRatio="xMidYMid meet">

<g transform="translate(0.000000,512.000000) scale(0.100000,-0.100000)"
fill="#000000" stroke="none">
<path d="M1780 4313 c-343 -37 -681 -231 -888 -512 -190 -257 -285 -615 -242
-914 l10 -69 -77 -83 c-252 -269 -328 -641 -203 -988 91 -251 316 -476 567
-567 198 -71 442 -78 618 -17 l40 14 63 -58 c153 -143 352 -245 574 -295 107
-25 366 -25 478 0 237 51 458 173 618 339 l62 66 63 -29 c150 -69 364 -96 533
-66 195 34 365 119 507 255 276 264 368 661 237 1024 -86 236 -310 469 -531
552 l-47 17 -7 66 c-42 391 -338 710 -720 777 -145 25 -304 14 -425 -29 l-45
-16 -24 32 c-51 69 -229 237 -301 285 -251 168 -566 247 -860 216z m316 -168
c300 -52 542 -200 722 -440 39 -51 79 -94 93 -99 20 -7 44 -2 105 22 209 80
437 63 624 -45 83 -49 214 -180 263 -263 55 -96 87 -206 94 -327 7 -122 11
-126 123 -167 42 -14 109 -48 150 -75 373 -239 481 -736 240 -1104 -225 -345
-664 -462 -1034 -277 -43 22 -90 40 -105 40 -20 0 -46 -22 -115 -96 -106 -114
-187 -177 -304 -237 -339 -173 -719 -152 -1049 59 -29 18 -95 74 -147 124 -65
62 -102 90 -119 90 -13 0 -55 -11 -95 -24 -237 -81 -490 -50 -695 84 -368 240
-475 723 -242 1095 37 59 94 123 196 217 26 24 32 56 19 108 -20 87 -23 278
-6 384 59 358 274 655 593 818 218 113 461 152 689 113z"/>
<path d="M1364 3351 c-48 -12 -133 -62 -160 -94 -14 -17 -37 -53 -52 -81 l-27
-51 0 -405 0 -405 34 -63 c38 -70 69 -100 145 -140 l51 -27 245 0 245 0 51 27
c28 15 65 38 81 52 45 38 92 134 99 204 6 56 5 62 -19 86 -56 56 -124 24 -138
-64 -9 -58 -29 -91 -73 -124 -26 -20 -41 -21 -245 -21 l-218 0 -37 29 c-67 50
-67 54 -64 461 3 349 4 365 24 391 50 67 56 69 279 72 229 4 254 -2 299 -61
16 -21 30 -56 35 -88 14 -87 83 -118 138 -63 24 24 25 30 19 85 -11 110 -69
196 -168 250 l-63 34 -225 2 c-124 1 -239 -2 -256 -6z"/>
<path d="M2265 3335 l-25 -24 0 -591 0 -591 25 -24 c15 -16 36 -25 55 -25 19
0 40 9 55 25 l25 24 0 256 0 255 320 0 320 0 0 -255 0 -256 25 -24 c32 -33 78
-33 110 0 l25 24 0 591 0 591 -25 24 c-15 16 -36 25 -55 25 -19 0 -40 -9 -55
-25 l-25 -24 0 -256 0 -255 -320 0 -320 0 0 255 0 256 -25 24 c-15 16 -36 25
-55 25 -19 0 -40 -9 -55 -25z"/>
<path d="M3797 2708 c-9 -7 -111 -146 -227 -308 -225 -316 -232 -329 -185
-375 24 -25 27 -25 200 -25 l175 0 0 -95 c0 -88 2 -98 25 -120 15 -16 36 -25
55 -25 19 0 40 9 55 25 23 22 25 32 25 117 l0 93 33 15 c38 18 55 58 41 98 -5
15 -23 33 -41 42 l-33 15 0 253 0 253 -25 24 c-26 27 -71 33 -98 13z m-40
-545 c-3 -2 -39 -3 -81 -1 l-77 3 78 110 78 110 3 -109 c1 -60 1 -110 -1 -113z"/>
</g>
</svg>
