<?xml version="1.0" standalone="no"?>
<!DOCTYPE svg PUBLIC "-//W3C//DTD SVG 20010904//EN"
 "http://www.w3.org/TR/2001/REC-SVG-20010904/DTD/svg10.dtd">
<svg class=" w-[100px] h-[100px] mb-4 fill-white"  version="1.0" xmlns="http://www.w3.org/2000/svg"
 width="512.000000pt" height="512.000000pt" viewBox="0 0 512.000000 512.000000"
 preserveAspectRatio="xMidYMid meet">

<g transform="translate(0.000000,512.000000) scale(0.100000,-0.100000)"
stroke="none">
<path d="M2275 5019 c-405 -31 -793 -178 -1125 -427 -95 -71 -283 -254 -363
-352 -199 -246 -342 -549 -413 -873 -35 -157 -39 -349 -11 -472 11 -44 83
-237 162 -430 222 -542 317 -803 400 -1095 117 -417 151 -652 143 -998 l-6
-214 28 -32 c27 -29 32 -31 102 -31 568 0 2409 20 2425 26 12 4 30 20 39 34
16 25 17 49 6 348 -7 177 -15 370 -19 428 l-6 106 94 7 c194 15 337 95 431
240 76 119 81 147 86 534 l4 342 144 0 c182 0 229 15 303 96 60 66 86 139 78
218 -7 69 -52 266 -92 406 -33 116 -216 636 -275 785 -86 216 -232 461 -378
636 -348 415 -868 674 -1442 719 -139 11 -171 11 -315 -1z m339 -199 c246 -24
445 -79 662 -184 394 -191 668 -465 873 -874 66 -131 91 -194 218 -552 108
-304 156 -462 192 -637 27 -133 27 -154 -5 -186 l-25 -26 -209 -3 -210 -3 -27
-28 -28 -27 -5 -408 c-5 -390 -6 -409 -27 -454 -30 -67 -96 -133 -162 -164
-51 -25 -70 -28 -214 -33 -158 -6 -159 -6 -183 -34 -29 -34 -29 -40 -9 -502 8
-181 15 -345 15 -362 l0 -33 -485 0 -485 0 0 418 0 418 331 214 c182 118 335
222 340 231 5 10 9 36 9 57 0 33 -6 45 -31 66 -57 48 -69 43 -370 -152 l-274
-178 -3 249 -2 250 58 66 c343 389 522 832 522 1296 0 252 -46 458 -149 670
-73 148 -157 268 -268 380 -93 94 -204 182 -240 191 -45 12 -78 -7 -161 -94
-295 -309 -452 -581 -507 -877 -24 -124 -17 -359 15 -505 44 -208 127 -450
223 -650 79 -165 163 -297 290 -453 16 -20 17 -46 15 -273 l-3 -250 -274 178
c-301 195 -313 200 -370 152 -25 -21 -31 -33 -31 -66 0 -21 4 -47 9 -56 5 -10
158 -114 340 -232 l331 -214 0 -423 0 -423 -387 0 c-214 0 -445 -3 -515 -7
l-128 -6 0 164 c0 534 -149 1085 -565 2095 -156 378 -171 432 -162 599 16 292
150 637 355 915 66 89 230 260 322 335 212 173 479 306 746 373 220 55 432 72
648 52z m-117 -637 c329 -319 455 -771 353 -1260 -48 -231 -166 -491 -309
-682 l-41 -54 -2 661 -3 662 -27 26 c-37 37 -99 37 -136 0 l-27 -26 -5 -646
-5 -647 -42 74 c-128 225 -239 513 -289 754 -38 180 -38 366 -1 507 47 179
155 371 313 556 126 149 129 152 135 152 4 0 43 -35 86 -77z"/>
</g>
</svg>
